<svg xmlns="http://www.w3.org/2000/svg" data-name="Layer 1" viewBox="0 0 100 125"><path d="M5.91 34.26c3.618-.193 7.234-.422 10.85-.648.085.822.254 1.636.704 2.293.844 1.232 2.503 1.003 3.794 1.074 3.608.2 7.211.407 10.826.376q2.71-.023 5.415-.183c1.56-.092 3.018-.285 4.48-.878.34-.138.686-.253 1.035-.36l.023.415c.05.92.034 1.877.187 2.786.103.61.374 1.171.827 1.585.699.64 1.636.887 2.553 1.009-.013.47-.033.94-.034 1.408-.003 1.388.588 2.431 1.845 2.979 1.344.585 2.943.623 4.38.588 1.63-.039 3.21-.457 4.833-.545 1.517-.082 2.96.35 3.797 1.736.69 1.143.948 2.647.853 3.978-.064.913-.54 1.395-1.32 1.763a21 21 0 0 1-2.382.934 28 28 0 0 1-4.84 1.096c-.817.115-1.637.198-2.46.258-.085-.42-.157-.843-.255-1.26-.415-1.755-.96-3.477-1.677-5.126-.29-.669-.579-1.555-1.206-1.972-.631-.42-1.53-.33-2.244-.327q-1.418.005-2.826.17c-.796.092-1.73.127-2.462.486-1.405.688-.817 2.593-.428 3.751.479 1.424 1.25 2.757 2.46 3.644 1.244.912 2.795 1.23 4.293 1.325 1.289.082 2.595.04 3.889-.054a58 58 0 0 1 .684 4.701c.277 2.629.425 5.271.454 7.915-1.58-.15-3.134-.454-4.696-.834-2.169-.53-4.347-1.083-6.587-1.124-.981-.018-1.988.04-2.986.026a67 67 0 0 0-.122-3.932c-.07-1.143-.154-2.292-.308-3.426-.113-.833-.29-1.667-.654-2.426-.36-.75-.933-1.379-1.692-1.702-.917-.391-1.931-.305-2.891-.17-.28.04-.56.073-.839.11q-.022-.57-.047-1.14l-.155-3.777c-.042-1.02.02-2.14-.303-3.12-.62-1.875-2.9-2.374-4.573-2.685-.147-.028-.302-.044-.455-.063-.062-1.518-.276-3.402-1.678-4.038-.784-.355-1.707-.263-2.535-.183-1.049.102-2.1.142-3.151.191l-1.747.082c-.48.022-.983.03-1.443.191-.76.268-1.315.9-1.635 1.642-.85 1.97.071 4.029.28 6.03.119 1.14.099 2.294.121 3.44a272 272 0 0 0 .99 18.38c.14 1.578.066 4.01 1.777 4.746.77.332 1.653.25 2.46.145a61 61 0 0 1 2.91-.312c1.128-.094 2.253-.309 3.383-.33.126-.002.248-.017.372-.024.103.528.208 1.056.325 1.581.097.436.208.878.471 1.244.565.782 1.717 1.108 2.582 1.374 1.047.323 2.141.504 3.234.538 1.749.054 3.701-.282 4.43-2.147.373-.954.435-2.039.537-3.054 2.076-.045 4.152-.089 6.228-.141l8.302-.21a87 87 0 0 1-.232 3.519c-.034.384.55.382.583 0 .105-1.176.177-2.354.232-3.534l5.346-.135c2.357-.059 4.689-.069 7.044.045 2.346.113 4.673.024 7.016-.107a202 202 0 0 0 5.196-.357c.515-.042 1.068-.043 1.553-.246.776-.322.99-1.107 1.036-1.896.07-1.194.072-2.397.106-3.594q.207-7.355.387-14.71.06-2.427.114-4.852c.405-.016.81-.033 1.21-.041l2.221-.05c.166 5.292.331 10.584.246 15.877a128 128 0 0 1-.51 9.797c-.753.401-1.694.027-2.506.125-.75.09-1.378.536-1.814 1.158-1.115 1.59-.61 3.589-.054 5.291.243.743.503 1.563 1.12 2.072.72.596 1.74.505 2.61.544l6.643.294c.974.043 2.102.244 3.033-.145.626-.261 1.097-.777 1.383-1.4.7-1.526.534-3.35.514-4.985a233 233 0 0 0-2.205-29.186c-.017-.126-.165-.223-.281-.22l-7.403.162-.214.005c-.17-5.421-.33-10.843-.207-16.267q.031-1.342.085-2.682c.007-.154-.138-.312-.291-.3l-9.121.666c.021-2.148.072-4.302.016-6.447-.043-1.636-.392-3.486-2.014-4.203-.963-.425-2.078-.428-3.106-.525l-3.583-.337-7.253-.683c-.844-.079-1.88-.238-2.3.723-.159.361-.184.77-.227 1.158a71 71 0 0 0-.18 1.85 71 71 0 0 0-.183 3.221l-8.095.048.01-.329c.03-.93.115-1.881.023-2.81-.136-1.388-.888-2.86-2.392-2.97-1.016-.072-3.485.513-3.413 1.951.016.308.132.618.182.921.077.471.116.949.142 1.425.034.614.033 1.23.042 1.843l-6.929.041-2.709.016c-.554-1.023-1.36-1.898-2.415-2.365-.92-.407-1.937-.453-2.925-.423a71 71 0 0 0-3.405.21c-2.292.182-4.582.397-6.881.43a.29.29 0 0 0-.252.148c-.754 1.391-.545 3.11-.495 4.638a146 146 0 0 0 .288 5.583c.023.323.039.663.062 1.008-3.6.224-7.2.439-10.802.632-.373.02-.375.62 0 .6m36.202 1.342c-.804.303-1.57.611-2.42.759-.867.15-1.752.188-2.63.236q-2.88.159-5.764.162c-3.875.005-7.741-.251-11.608-.466-.819-.046-1.482-.181-1.893-.977-.274-.53-.379-1.143-.44-1.74 2.872-.18 5.743-.363 8.614-.558.912 1 2.16 1.67 3.495 1.791 1.645.149 3.327-.633 3.847-2.295 1.021-.073 2.042-.138 3.063-.211 2.138-.153 4.276-.313 6.414-.468l.19 3.489c-.29.087-.583.171-.868.278m-9.003-7.908c.044 1.141-.045 2.286-.141 3.422q-.034.428-.116.829-3.32.235-6.64.46a4.74 4.74 0 0 1-.861-4.37c.554-1.858 2.039-3.16 3.887-3.487 1.03-.182 2.094-.15 3.139-.148.469 1.022.689 2.187.732 3.294m-.44 4.864c-.199.505-.52.938-1.061 1.242-1.572.882-3.574.328-4.86-.835q2.961-.2 5.921-.407m10.444-5.463-.144-2.629c-.002-.042 0-.084-.003-.126l4.235-.025c-.034.713-.072 1.426-.095 2.134l-.145 4.485-3.623.264zm3.828 4.438-.098 3.037c-1.099.141-2.208.313-3.288.59l-.185-3.367zm.468 3.571q1.005-.119 2.016-.184c1.011-.065 1.625-.231 2.247.131.708.413.517 1.423.426 2.106-.12.897-.235 1.796-.362 2.693-.047.336-.084.726-.304.997-.28.346-.759.354-1.163.362-.463.009-.927.023-1.39.03-.551.01-1.112.009-1.668-.035l.09-2.764zm-1.749 5.824c-.473-.145-.94-.364-1.295-.727-.519-.53-.6-1.24-.641-1.962-.048-.82-.09-1.64-.135-2.461 1.03-.269 2.084-.445 3.133-.593l.101-.012-.08 2.456c-.037 1.166-.087 2.335-.125 3.504a6.5 6.5 0 0 1-.958-.205m3.047 15.115c-1.47.03-2.982-.017-4.38-.528-1.453-.531-2.52-1.624-3.19-3.036a10.4 10.4 0 0 1-.708-2.098c-.187-.806-.275-1.728.654-2.035.786-.26 1.68-.314 2.497-.393a25 25 0 0 1 2.743-.113c.362.005.75-.014 1.104.07.456.11.696.43.905.837.408.792.748 1.626 1.055 2.464.564 1.542.984 3.132 1.315 4.742-.665.04-1.33.077-1.995.09m3.733 9.734c-.158-3.095-.46-6.213-1.044-9.263l.66-.055c1.73-.16 3.453-.427 5.138-.862a24 24 0 0 0 2.519-.794c.735-.279 1.557-.557 2.204-1.022 1.197-.86 1.038-2.587.817-3.894-.226-1.334-.79-2.68-1.874-3.505-1.26-.959-2.871-.912-4.35-.707-1.811.25-3.564.523-5.399.389-1.336-.098-3.35-.318-3.836-1.88-.23-.736-.14-1.6-.092-2.39 1.004.081 2.012.033 3.018.016.668-.012 1.403-.09 1.79-.73.4-.664.382-1.624.482-2.374.111-.825.3-1.681.296-2.517-.004-.66-.216-1.314-.803-1.656-.583-.34-1.306-.279-1.95-.246q-1.297.065-2.588.212l.068-2.1.03-.909 8.412-.613c.068 1.123.177 2.243.374 3.342.293 1.634.845 3.34 2.023 4.53 1.451 1.469 3.456 1.565 5.378 1.592l6.542.09a74 74 0 0 1-.206 7.363c-.192 2.434-.524 4.847-.936 7.252-.395 2.298-.78 4.592-.812 6.931-.015 1.09 0 2.242-.474 3.245-.37.785-.993 1.388-1.717 1.826-1.493.901-3.27 1.172-4.952 1.45-2.322.386-4.658.745-7.015.781a19 19 0 0 1-1.605-.049 83 83 0 0 0-.098-3.453m3.98-37.553a71 71 0 0 1 .012-3.963l1.301-.008c2.127-.012 4.37-.211 6.465.255 1.92.427 3.382 1.603 4.252 3.41.22.454.397.925.548 1.406l-12.509.915q-.044-1.013-.07-2.015m10.28 1.868 2.454-.18c.311 1.175.492 2.393.631 3.59.245 2.101.382 4.214.445 6.329l-4.329-.06c-1.148-.016-2.3-.002-3.447-.061-1.038-.054-2.092-.22-2.988-.797-1.458-.94-2.136-2.69-2.492-4.347-.262-1.218-.382-2.474-.454-3.732zm13.017 15.73q-.02.896-.042 1.791c-.775.038-1.563.055-2.293-.122-1.731-.422-2.386-2.226-2.615-3.857-.123-.878-.132-1.765-.128-2.65l.002-.493 1.676.023c.603.009 1.235-.033 1.831.076 1.02.187 1.452 1.003 1.572 1.986.13 1.066.022 2.176-.003 3.247m-6.726-5.953-2.185-.03c-.014-.498-.012-.997-.037-1.494-.113-2.276-.295-4.57-.668-6.817a20 20 0 0 0-.353-1.659l4.363-.319-.05 10.333zM36.794 73.812c-1.378.031-2.756.068-4.135.098-1.305.029-2.61.061-3.915.126-.84.041-1.676.156-2.514.22a75.4 75.4 0 0 1-1.312-14.217c.003-1.077.038-2.151.088-3.226.678-.002 1.36-.043 2.028-.08a47 47 0 0 0 3.45-.321l.145-.02.146 3.565c.083 2.026-.105 4.368 1.364 5.948 1.272 1.368 3.165 1.837 4.942 1.922h.018a67 67 0 0 1-.079 3.137c-.05.951-.135 1.9-.226 2.848M25.095 45.754c.038 1.241-.016 2.484-.105 3.722-.162 2.244-.415 4.48-.542 6.727-.815-.008-1.696-.094-2.301-.67-.765-.73-.793-1.996-.853-2.99a23 23 0 0 1 .068-3.66c.11-1.118.346-2.229 1.33-2.87.718-.47 1.559-.603 2.393-.559zm10.894 11.791c.437.79.612 1.722.722 2.613.143 1.164.228 2.34.294 3.51q.099 1.778.105 3.558c-.997-.047-1.98-.194-2.912-.606-.793-.35-1.538-.88-2.028-1.62-.617-.933-.688-2.072-.735-3.164q-.116-2.766-.227-5.531c1.76-.276 3.762-.6 4.78 1.24m-10.2-12.018c.975.162 2.032.423 2.933.847 1.066.503 1.5 1.372 1.592 2.545.095 1.216.108 2.443.158 3.662l.131 3.195c-1.849.232-3.697.4-5.568.423.06-1.089.135-2.177.234-3.264.218-2.386.482-4.78.41-7.18l-.008-.24c.04.005.08.005.118.012m-3.963 29.115c-.964.078-1.912.197-2.871.315-.833.103-1.9.22-2.568-.418-.672-.643-.756-1.752-.838-2.632a268 268 0 0 1-.97-14.947c-.09-2.429-.072-4.865-.193-7.292-.057-1.156-.299-2.258-.517-3.39-.2-1.038-.32-2.126.078-3.132.383-.973 1.106-1.482 2.115-1.556 1.204-.09 2.415-.115 3.62-.171.968-.045 1.941-.202 2.91-.193s1.708.344 2.074 1.312c.275.726.358 1.538.396 2.333-1.468-.05-3.009.378-3.75 1.79-.465.884-.526 1.952-.592 2.934a23 23 0 0 0 .054 3.75c.083.848.226 1.744.78 2.415.556.675 1.403.923 2.23 1.006.209.021.42.03.63.038a76.3 76.3 0 0 0 .702 14.313c.152 1.06.336 2.116.534 3.168-.09.004-.178.012-.268.014-1.189.021-2.37.247-3.556.343m14.913-.129c-.11 1.04-.15 2.237-.689 3.157-.527.9-1.546 1.228-2.511 1.315-1.051.095-2.132.005-3.164-.21a12 12 0 0 1-1.546-.431c-.546-.192-1.189-.394-1.627-.797-.375-.345-.474-.855-.58-1.337q-.147-.686-.28-1.375c.333-.033.664-.072 1-.106 2.359-.233 4.754-.214 7.121-.254.761-.013 1.522-.036 2.283-.052zm.642-.715c.099-1.032.186-2.065.236-3.1a67 67 0 0 0 .06-2.868c1 .013 1.998-.03 2.998-.011 1.135.021 2.257.171 3.37.393 2.27.451 4.49 1.153 6.786 1.473.376.052.754.076 1.131.106q.007 1.235-.023 2.468c-.01.399-.035.797-.05 1.195q-7.254.18-14.508.344m42.16-20.484a4052 4052 0 0 1-.446 16.696c-.016.582.019 1.196-.086 1.77-.103.566-.404.893-.96 1.007-.606.123-1.251.124-1.866.172q-3.55.275-7.106.424c-2.348.098-4.676-.096-7.021-.145-2.414-.05-4.838.086-7.25.147l-2.337.055a85 85 0 0 0 .068-3.594c1.734.092 3.476-.023 5.202-.235 2.052-.252 4.157-.518 6.163-1.045 1.528-.402 3.11-1.071 4.067-2.425 1.218-1.722.835-4.036 1-6.03.205-2.463.739-4.881 1.098-7.322.6-4.085.84-8.22.754-12.35h.07l3.168.044c-.01 3.075.159 7.436 4.011 7.709.526.037 1.058.034 1.59.02q-.058 2.55-.12 5.102m5.262-5.237 6.798-.15a233 233 0 0 1 2.122 26.83c.034 1.603.143 3.245.011 4.844-.097 1.181-.452 2.67-1.717 3.03-.791.226-1.71.068-2.52.032l-2.622-.116c-1.756-.078-3.523-.101-5.275-.237-.818-.063-1.32-.44-1.663-1.196-.316-.691-.535-1.466-.72-2.204-.35-1.403-.37-3.235.965-4.125.633-.421 1.356-.293 2.064-.24.475.035 1.346.067 1.67-.395.162-.229.112-.711.136-.983q.063-.712.116-1.425.099-1.337.168-2.675c.094-1.814.148-3.63.174-5.446.05-3.578-.013-7.156-.11-10.733-.044-1.6-.095-3.2-.145-4.799zm-1.279-19.215c-.238 6.215-.061 12.428.133 18.64l-2.82.062q-.285.009-.578.025l.045-1.947c.036-1.584.447-4.04-.964-5.173-.752-.604-1.772-.537-2.673-.55l-2.023-.027.013-2.702.036-7.407q0-.138.003-.275zm-26.926-7.89q.063-.84.147-1.675c.052-.517.023-1.203.272-1.671.274-.514.922-.39 1.396-.347l1.835.173 7.079.666c1.203.114 2.408.214 3.61.341.985.104 1.996.332 2.575 1.239.477.747.583 1.695.617 2.568.045 1.118.006 2.243 0 3.362l-.016 3.322-4.528.331c-.295-.987-.69-1.941-1.278-2.775-1.127-1.593-2.793-2.429-4.662-2.706-2.117-.313-4.308-.156-6.438-.144l-.744.005c.033-.897.067-1.794.135-2.69m-5.973 3.323 5.22-.03a71 71 0 0 0-.018 3.605q.026 1.201.083 2.411l-2.548.186-5.817.425.144-4.443.07-2.137zm-6.514-5.89c.843-.242 1.723-.364 2.384.341.559.596.728 1.432.76 2.232.037.907.014 1.822-.025 2.737l-4.277.025c-.008-.586-.006-1.173-.035-1.758a14.6 14.6 0 0 0-.29-2.262c-.167-.795.901-1.148 1.483-1.315m-7.79 5.974 6.065-.036c.003.07 0 .138.005.207l.315 5.767.051.924c-3.098.225-6.197.442-9.296.661.176-.98.202-2.023.232-3.005.035-1.152-.017-2.325-.306-3.444a7.5 7.5 0 0 0-.365-1.055zm-19.341 3.05a93 93 0 0 1-.082-2.808c-.007-.816.048-1.637.402-2.376 2.292-.042 4.576-.258 6.86-.436 1.156-.09 2.315-.183 3.474-.203 1.072-.018 2.151.095 3.066.72.572.39 1.013.902 1.361 1.478l-.303.002c-1.103.006-2.23 0-3.302.307-3.291.942-4.996 5.168-3.079 8.148.044.067.094.128.14.193-.827.056-1.655.118-2.483.173-1.908.126-3.818.244-5.727.364-.154-1.85-.254-3.707-.327-5.562"/></svg>