<svg xmlns="http://www.w3.org/2000/svg" id="svg1" x="0" y="0" data-name="Layer 1" version="1.1" viewBox="0 0 100 125"><path id="path1" d="M76.764 51.361c-2.614-2.912-5.926-5.082-8.981-7.488-.57-.448-1.124-.914-1.683-1.375.426-1.48.84-2.964 1.226-4.456.785-3.043 1.62-6.38.765-9.5a8.64 8.64 0 0 0-5.507-5.611c-3.476-1.394-7.373-1.904-11.014-2.694l-4.64-1.008c-.937-3.697-.457-7.763 2.688-10.337.249-.204-.107-.556-.354-.354a10.02 10.02 0 0 0-3.206 9.105 13 13 0 0 0 .27 1.455l-7.213-1.567c-2.833-.612-6.21-1.253-8.525.98a11.5 11.5 0 0 0-2.354 3.93q-1.08 2.54-1.906 5.18a57.2 57.2 0 0 0-2.348 22.532c.03.317.53.32.5 0a57.3 57.3 0 0 1 1.695-20.216 40 40 0 0 1 3.529-9.427c2.017-3.524 5.53-3.296 9.031-2.55 2.57.548 5.15 1.079 7.731 1.614a25 25 0 0 0 4.69 8.343 97 97 0 0 0 14.376 14.718c-1.358 4.587-2.914 9.11-4.41 13.66-.972 2.962-1.832 5.962-2.917 8.886a45 45 0 0 1-4.264 8.457 23.7 23.7 0 0 1-6.502 7.274c-2.544 1.695-5.426 2.08-8.41 2.235-3.126.163-5.975 1.487-9.061 1.839-2.273.26-5.627.09-7.073-1.989-.77-1.107-.953-2.77-1.316-4.061q-.463-1.646-.86-3.31a5.3 5.3 0 0 0 1.198.69c3.253 1.454 6.881 1.235 10.347.917 2.228-.204 5.093-.997 5.987-3.225a7 7 0 0 0 .826-.061 3.314 3.314 0 0 0 3.03-3.698c-.262-2.373-2.264-3.782-4.368-4.487-2.385-.8-6.026-.856-7.426-3.336-.942-1.669.246-3.214 1.18-4.546a9.3 9.3 0 0 0 1.63-3.643c.551-2.847-.115-5.707-.338-8.547-.213-2.706.046-6.15 2.722-7.607a15.4 15.4 0 0 1 4.898-1.163l5.64-.924c2.89-.473 6.245-1.366 9.109-.301.802.298 3.965 2.284 1.882 2.974a8.2 8.2 0 0 1-2.351.11l-2.968.011c-1.597.006-3.198-.024-4.794.02a5.36 5.36 0 0 0-3.117.795c-1.606 1.22-.985 3.429.415 4.534a4.8 4.8 0 0 0 1.855.838c-1.268.1-2.536.141-3.813.184a4.9 4.9 0 0 0-3.33 1.328 13 13 0 0 0-2.24 2.881c-.333.556-.972 1.518-.51 2.166.513.718 1.77.38 2.47.312 1.717-.168 3.466.537 5.157.778a17.1 17.1 0 0 0 8.884-1.381 18 18 0 0 0 3.02-1.544c.471-.315 1.197-.776 1.296-1.392.239-1.477-3.487-2.352-4.465-2.712a18.8 18.8 0 0 0-4.86-.855c-1.816-.178-5.51-1.534-4.132-4.116.945-1.772 4.055-1.32 5.691-1.327 2.143-.007 4.287.012 6.43-.023.784-.013 2.012.024 2.581-.64.652-.76-.21-1.476-.747-1.982-2.112-1.99-4.883-2.098-7.637-1.761-3.92.48-7.844 1.213-11.734 1.895-2.9.509-4.979 1.884-5.644 4.866-.703 3.146.216 6.326.328 9.481a10.15 10.15 0 0 1-1.115 5.526c-.761 1.313-2.012 2.454-2.215 4.028-.321 2.492 2.16 3.878 4.179 4.526 2.944.945 8.104 1.345 7.962 5.577-.064 1.899-1.612 2.562-3.214 2.691a4 4 0 0 0 .09-.544c.246-2.489-2.02-3.74-4.142-4.081a24 24 0 0 1-3.98-.489c-1.414-.475-2.58-1.49-3.965-2.04a4.935 4.935 0 0 0-6.167 2.402c-1.519 2.77-.288 6.201.477 9.022.716 2.64.942 5.812 3.72 7.054 2.463 1.102 5.357.86 7.903.232a42 42 0 0 1 5.646-1.327c1.504-.157 3.014-.142 4.512-.386 6.76-1.101 10.814-7.233 13.869-12.821a55 55 0 0 0 3.88-9.85c1.142-3.596 2.373-7.158 3.55-10.742q1.132-3.445 2.146-6.928a118 118 0 0 0 4.08 3.237c3.075 2.322 6.35 4.758 8.336 8.137 2.343 3.984 1.826 8.491-.425 12.393-2.144 3.715-5.374 6.745-8.651 9.458a64.5 64.5 0 0 1-10.788 7.218 65.2 65.2 0 0 1-27.599 7.594c-.32.015-.322.515 0 .5a65.6 65.6 0 0 0 24.19-5.854 60.7 60.7 0 0 0 20.19-14.45C77.847 68.33 80.1 64.836 80.43 60.9a12.76 12.76 0 0 0-3.665-9.54m-31.517.643c-1.25-.478-1.021-2.091-.943-3.168a4.1 4.1 0 0 1 1.401-3.11 3.7 3.7 0 0 1 1.95.002 1.43 1.43 0 0 1 .928 1.399 7 7 0 0 1-.687 3.68 2.234 2.234 0 0 1-2.65 1.197m-1.743.07a26 26 0 0 0-4.34-.768c-.912.009-3.156.685-2.4-1.028a11.7 11.7 0 0 1 1.873-2.76 5.24 5.24 0 0 1 4.38-1.864 43 43 0 0 0 2.108-.094 4.63 4.63 0 0 0-1.285 2.887 9.2 9.2 0 0 0-.025 2.472 1.95 1.95 0 0 0 .764 1.271 13 13 0 0 1-1.075-.115m9.112-5.92a30 30 0 0 1 2.862 1.163c.455.23 1.141.504.959 1.09-.151.485-1.008.895-1.41 1.134a19.7 19.7 0 0 1-5.943 2.323 19 19 0 0 1-1.742.272 3.2 3.2 0 0 0 .713-.674 6.83 6.83 0 0 0 1.028-4.335 1.93 1.93 0 0 0-1.044-1.775 2 2 0 0 0-.263-.086l.014-.008a18.8 18.8 0 0 1 4.826.895M35.01 76.2a18 18 0 0 1-5.19.698 20.4 20.4 0 0 1-5.265-.24c-1.19-.25-4.66-1.032-3.86-2.864.522-1.195 2.55-1.416 3.66-1.354 1.697.095 3.404.41 5.09.619l5.305.653c.96.118 1.938.27 2.913.299A4.97 4.97 0 0 1 35.01 76.2m-14.402-7.072a4.68 4.68 0 0 1 3.576-2.635c2.71-.295 4.68 2.296 7.298 2.633 2.15.276 5.5-.06 6.388 2.544a2.83 2.83 0 0 1 .014 1.838 9 9 0 0 1-.791-.026c-1.91-.147-3.817-.452-5.718-.686-2.09-.257-4.178-.522-6.269-.772a6.46 6.46 0 0 0-3.528.398 2.93 2.93 0 0 0-1.311 1.119 6.73 6.73 0 0 1 .341-4.413m36.929-34.59c-3.491-3.67-7.192-7.663-9.47-12.231a15.5 15.5 0 0 1-1.015-2.612c4.2.874 8.399 1.773 12.546 2.82 2.858.723 5.929 1.866 7.404 4.616 1.553 2.894.907 6.436.172 9.468-.452 1.867-.96 3.715-1.497 5.553a97 97 0 0 1-8.14-7.613"/></svg>