<svg xmlns="http://www.w3.org/2000/svg" id="svg2" x="0" y="0" data-name="Layer 1" version="1.1" viewBox="0 0 100 125"><path id="path1" d="M63.613 73.033c3.415.039 9.23-.903 8.582-5.612-.27-1.955-2.025-3.11-3.517-4.151a18.35 18.35 0 0 1-5.8-6.838 19 19 0 0 1-.64-1.412q.421-.002.832.003c1.85.028 5.412.73 6.364-1.485.793-1.844-.795-4.356-1.894-5.734-1.298-1.628-3.353-2.47-5.152-1.04-2.302 1.832-2.025 4.897-.94 7.75a22.5 22.5 0 0 1-3.49-.202 4.69 4.69 0 0 1-3.651-2.104c-.966-1.85.057-4.082.933-5.756 2.72-5.193 8.105-10.132 7.176-16.53a7.74 7.74 0 0 0-3.432-5.58c-.274-.171-.525.261-.253.432a7.81 7.81 0 0 1 3.2 7.715c-.418 3.32-2.279 6.206-4.11 8.922-2.05 3.043-7.539 10.264-1.994 12.813a13.8 13.8 0 0 0 5.826.799 23.4 23.4 0 0 0 2.841 4.911 22.3 22.3 0 0 0 4.858 4.42c1.978 1.46 3.403 3.93 1.448 6.127-1.584 1.779-4.482 2.029-6.7 2.052-.246.003-.51.003-.77.003a11 11 0 0 0-.222-3.273 6 6 0 0 0-4.232-4.713c-1.662-.372-3.777-.01-4.804 1.474-1.246 1.8-.143 4.043 1.423 5.22 1.98 1.49 4.842 1.722 7.322 1.776-.354 4.586-2.12 9.918 2.491 12.915 1.301.845 3.635 1.839 2.685 3.824-.932 1.951-3.437 1.93-5.186 1.398a27.2 27.2 0 0 1-7.67-4.199c-9.865-7.168-15.45-18.427-18.071-30.093a99 99 0 0 1-1.675-9.98A42.5 42.5 0 0 1 35 37.978a14.18 14.18 0 0 1 3.15-8.177c1.205.41 2.43.76 3.628 1.19 1.526.549 2.884 1.392 4.364 2.032.116.05.226.075.34.117a1.8 1.8 0 0 0 .347.201 1.5 1.5 0 0 0 .812.1c1.95.29 3.647-.55 5.445-1.756.501-.336 2.032-1.087 2.15-1.79.154-.907-1.28-1.314-1.85-1.613-2.312-1.212-4.643-2.6-7.331-2.653a11.18 11.18 0 0 0-7.31 2.859q-.404.353-.763.735c-.09-.032-.182-.06-.272-.093-2.674-.978-6.71-3.39-5.738-6.875.74-2.655 4.012-3.564 6.451-3.435 3.008.16 5.725 1.782 8.45 2.897 3.72 1.521 10.085 2.432 11.731-2.496 1.617-4.84-2.904-8.548-6.995-9.845a32.13 32.13 0 0 0-16.35-.57 21.8 21.8 0 0 0-7.39 3.157c-.265.18-.015.613.252.432 5.439-3.677 12.305-4.321 18.678-3.512 3.216.408 6.687 1.182 9.182 3.387 2.233 1.975 3.43 5.751 1.337 8.27-2.095 2.52-5.99 2.18-8.78 1.27-3.005-.98-5.72-2.759-8.86-3.336-3.79-.696-10.028 1.558-7.94 6.481 1.032 2.433 3.475 3.796 5.839 4.657l.053.017c-3.46 4.038-3.48 10.017-2.979 15.078C35.895 57.29 39.068 70.17 47.238 80.14a39.2 39.2 0 0 0 13.4 10.677c2.175 1.027 5.126 1.98 7.123.063 1.744-1.674.73-3.544-1.003-4.65a8.1 8.1 0 0 1-3.274-2.943 9.07 9.07 0 0 1-.868-4.635c.088-1.873.511-3.749.679-5.624zm-.367-26.235c1.932-.998 3.56.676 4.507 2.179.842 1.337 2.398 4.075.448 5.215-1.328.776-3.673.353-5.131.33q-.512-.005-1.029-.004c-1.017-2.726-1.578-6.284 1.205-7.72M47.842 26.48a5.2 5.2 0 0 1 1.26 3.07 3.46 3.46 0 0 1-.493 2.791 1.82 1.82 0 0 1-1.008.61 6 6 0 0 1-.84-.238 2 2 0 0 1-.33-.306 4.75 4.75 0 0 1-1-3.321 3.83 3.83 0 0 1 .686-2.053 1.51 1.51 0 0 1 1.725-.553m4.943 2.05c.793.42 2.175.844 1.192 1.92a11.5 11.5 0 0 1-3.264 2.047 5.1 5.1 0 0 1-2.15.536 3.03 3.03 0 0 0 1.114-2.495 9 9 0 0 0-.371-2.48 4.6 4.6 0 0 0-.715-1.476 17 17 0 0 1 2.464 1.036c.582.293 1.154.606 1.73.912m-14.244.829a10.66 10.66 0 0 1 7.844-3.196c-.031.018-.066.028-.096.047a2.94 2.94 0 0 0-1.145 1.7 5.46 5.46 0 0 0 .537 4.288q.027.044.056.087c-1.14-.554-2.225-1.173-3.413-1.624-1.255-.476-2.548-.836-3.82-1.26zm16.7 41.007c-1.126-1.156-1.753-3.024-.526-4.35a4.27 4.27 0 0 1 3.736-1.04c3.07.488 4.378 3.714 4.425 6.498.006.347-.006.701-.025 1.06-2.645-.026-5.804-.313-7.61-2.168"/></svg>